<svg xmlns="http://www.w3.org/2000/svg" viewBox="0 0 567.01 567.01"><defs><style>.cls-1{fill:#02838d;}.cls-2{fill:#fff;stroke:#214051;stroke-miterlimit:10;}</style></defs><g id="Laag_2" data-name="Laag 2"><g id="Laag_1-2" data-name="Laag 1"><circle class="cls-1" cx="283.51" cy="283.51" r="283.51"></circle><path class="cls-2" d="M493.9,233.37a11.41,11.41,0,0,0-5.5-7.28,10.77,10.77,0,0,0-8.89-.7c-25.7,9.34-65.34,15.34-109.93,15.34-10.85,0-21.29-.42-31.42-1.1a251.16,251.16,0,0,1-24.3,66.73c.52,0,1-.11,1.54-.11,13.86,0,25.09-1.19,25.09,8.46s-11.23,26.5-25.09,26.5c-8.07,0-15.18-2.7-19.76-6.83-13.85,17.78-30,31.8-47.84,41.07,20.08,69.92,67.05,119,121.78,119,73,0,132.2-87.29,132.2-195A277.79,277.79,0,0,0,493.9,233.37ZM422.26,437.49a3,3,0,0,1-1.95,2.2,2.87,2.87,0,0,1-2.82-.56c-10.3-8.95-27.82-14.89-47.91-14.89s-37.62,5.94-47.92,14.89a2.9,2.9,0,0,1-2.82.56,3,3,0,0,1-1.95-2.2,52.44,52.44,0,0,1-1.37-11.64c0-30.87,24.2-55.9,54.06-55.9s54.06,25,54.06,55.9A52.45,52.45,0,0,1,422.26,437.49Zm1.49-96.28c-13.86,0-25.09-16.85-25.09-26.5s11.23-8.46,25.09-8.46,25.09,7.83,25.09,17.48S437.6,341.21,423.75,341.21Z"></path><path class="cls-2" d="M330.05,178.25a277.41,277.41,0,0,0-7.87-66.09,11.39,11.39,0,0,0-5.5-7.27,10.76,10.76,0,0,0-5.23-1.35,10.64,10.64,0,0,0-3.67.65c-25.69,9.33-65.34,15.34-109.93,15.34s-84.24-6-109.93-15.34a10.5,10.5,0,0,0-3.66-.65A10.83,10.83,0,0,0,79,104.9a11.4,11.4,0,0,0-5.5,7.26,277.92,277.92,0,0,0-7.87,66.09c0,107.68,59.19,195,132.2,195S330.05,285.93,330.05,178.25ZM118.59,202.48c0-9.65,11.23-17.48,25.09-17.48s25.08,16.85,25.08,26.5S157.53,220,143.68,220,118.59,212.13,118.59,202.48Zm79.26,133.88c-29.86,0-54.06-25-54.06-55.91a52.45,52.45,0,0,1,1.38-11.64,3,3,0,0,1,1.94-2.2,2.92,2.92,0,0,1,2.83.56c10.3,8.95,27.81,14.9,47.91,14.9s37.62-5.95,47.91-14.9a2.9,2.9,0,0,1,2.83-.56,3,3,0,0,1,1.94,2.2,51.86,51.86,0,0,1,1.38,11.64C251.91,311.33,227.71,336.36,197.85,336.36ZM226.94,211.5c0-9.65,11.23-26.5,25.09-26.5s25.08,7.83,25.08,17.48S265.88,220,252,220,226.94,221.15,226.94,211.5Z"></path></g></g></svg>