<svg xmlns="http://www.w3.org/2000/svg" viewBox="0 0 465.33 465.33"><defs><style>.cls-1{fill:#00838d;stroke:#00838d;}.cls-1,.cls-2{stroke-miterlimit:10;}.cls-2,.cls-3{fill:#fff;}.cls-2{stroke:#204051;}.cls-4{fill:#204051;}</style></defs><g id="Laag_2" data-name="Laag 2"><g id="Laag_1-2" data-name="Laag 1"><circle class="cls-1" cx="232.67" cy="232.67" r="232.17"></circle><g id="layer1"><path id="rect2985" class="cls-2" d="M191,58.57c-5.7,0-10.31,6.53-10.31,12.14v4.81a10.09,10.09,0,0,0,5.68,9c-.05.66-.09,1.32-.09,2v95.54c-1.53,2.83-3,5.78-4.63,8.7L98.17,339.3c-13.44,24.31,12.13,45,27.19,45H334.18c15.06,0,40.91-20.17,27.19-45L277.93,190.79c-1.62-2.92-3.1-5.87-4.63-8.7V86.55c0-.67-.05-1.33-.1-2a10.08,10.08,0,0,0,5.69-9V70.71c0-5.61-4.58-12.14-10.28-12.14Z"></path><g id="g3213"><path id="path3201" class="cls-3" d="M213.73,178.6h32.21c12.81,0,17,11.74,23.12,22.88l72.73,132.27c14.69,26.72-10.32,38.47-23.13,38.47H141c-12.82,0-36.22-14.66-23.13-38.47l72.73-132.27c6.12-11.14,10.31-22.88,23.12-22.88Z"></path><rect id="rect3203" class="cls-3" x="196.76" y="79.11" width="66.07" height="119.11"></rect></g><path id="path3201-1" class="cls-4" d="M272.25,221l58,108.55c12.71,23.77-9.12,34-20.44,34H152.79c-11.33,0-32.06-13-20.45-34l56.91-103c50.31,19.42,68.61-34.55,83-5.59Z"></path><path id="path3252" class="cls-3" d="M236.92,299.88a18.75,18.75,0,1,1-18.75-18.45A18.6,18.6,0,0,1,236.92,299.88Z"></path><path id="path3254" class="cls-3" d="M210.27,277.81a11.08,11.08,0,1,1-11.08-10.9A11,11,0,0,1,210.27,277.81Z"></path><path id="path3256" class="cls-3" d="M254,256.58a6.54,6.54,0,1,1-6.54-6.43A6.49,6.49,0,0,1,254,256.58Z"></path></g></g></g></svg>