<svg xmlns="http://www.w3.org/2000/svg" viewBox="0 0 520.22 520.22"><defs><style>.cls-1{fill:#02838d;}.cls-2{fill:#fff;stroke:#214051;stroke-miterlimit:10;}</style></defs><g id="Laag_2" data-name="Laag 2"><g id="Laag_1-2" data-name="Laag 1"><circle class="cls-1" cx="260.11" cy="260.11" r="260.11"></circle><path class="cls-2" d="M470.24,331.25v-126l11.08-3.75-11.08-3.73-4.36-1.47L258.56,126.44,35.78,201.5l82.05,27.66,0,.06,8.33,2.73,19.11,6.6v0l114.85,36.29L373.85,238l0,.08,25.24-8.56-.1-.29,60.8-20.49V329.46l-16.56,29.89,21.21,34.43,20-34.6Zm-5.82,41.69-8-15.3,7.65-16.07,8.25,16.23Z"></path><path class="cls-2" d="M259.34,290.18,155,257.2,149.59,281a11.49,11.49,0,0,0-1.76,5.94c0,18.72,82.32,65.48,107.8,65.48,26.25,0,116.73-47.25,116.73-65.48a19.07,19.07,0,0,0-.71-4.44c-.26-1.06-.61-2.42-1-4.23l-5.4-21.91-105.17,34Z"></path></g></g></svg>