<svg xmlns="http://www.w3.org/2000/svg" viewBox="0 0 520.22 520.22"><defs><style>.cls-1{fill:#02838d;}.cls-2{fill:#fff;stroke:#214051;stroke-miterlimit:10;}</style></defs><g id="Laag_2" data-name="Laag 2"><g id="Laag_1-2" data-name="Laag 1"><circle class="cls-1" cx="260.11" cy="260.11" r="260.11"></circle><path class="cls-2" d="M178.22,188.15a33.75,33.75,0,1,0-33.76-33.74A33.75,33.75,0,0,0,178.22,188.15Z"></path><path class="cls-2" d="M313.83,123.88a33.75,33.75,0,1,0,33.76,33.75A33.75,33.75,0,0,0,313.83,123.88Z"></path><path class="cls-2" d="M178.22,108.89a45.45,45.45,0,0,1,42.86,30.75,25.91,25.91,0,0,1,15-8.69,44.51,44.51,0,0,1-4.4-53.17,16.19,16.19,0,0,0-7.2-2.42H179.3c-6.39,0-11.81,1.79-14.44,7.55l-17.43,38.18A47,47,0,0,1,178.22,108.89Z"></path><path class="cls-2" d="M201.87,69.67a29.52,29.52,0,1,0-29.52-29.51A29.52,29.52,0,0,0,201.87,69.67Z"></path><path class="cls-2" d="M371.66,134.18a45.13,45.13,0,0,1-11.2-29.56c0-.34.1-.65.1-1H319.73c-.14,0-3.49.63-4.14.84a45.36,45.36,0,0,1-1.12,7.7,45.45,45.45,0,0,1,42.22,30.7A25.91,25.91,0,0,1,371.66,134.18Z"></path><path class="cls-2" d="M343.09,97.74a30.29,30.29,0,0,0,20-7.58,45.34,45.34,0,0,1,10-16.72,31.22,31.22,0,0,0,.64-6.24,30.55,30.55,0,1,0-30.55,30.54Z"></path><path class="cls-2" d="M244.56,141.64c-7.45,0-13.55,2.13-16.5,8.64l-5,11a45,45,0,0,1-10.19,22.33l-.18.39a25.75,25.75,0,0,1,16.78,11.66,25.09,25.09,0,0,1,1.78,2.77l15.52,34,14.05-30.78a25.79,25.79,0,0,1,18.69-14.44,44.24,44.24,0,0,1-8.14-45.55Z"></path><path class="cls-2" d="M250.2,340.07A27,27,0,0,1,231,343.48v60a17.28,17.28,0,0,0,15.78,10.31,17,17,0,0,0,14.37-8.22V340.25A26.34,26.34,0,0,1,250.2,340.07Z"></path><path class="cls-2" d="M270.38,135.14a32.87,32.87,0,0,0,4.35-.44A45.48,45.48,0,0,1,301.65,114a33.73,33.73,0,1,0-31.27,21.17Z"></path><path class="cls-2" d="M76.36,323.89a26,26,0,0,1,.71-20l18.31-40.12L125.2,198.4a25.91,25.91,0,0,1,17.33-14.25v-1.83A45,45,0,0,1,133,157.48c-.63-.2-4-.84-4.14-.84H82.14c-6.63,0-12.22,1.87-14.93,7.81L23.66,259.87a13.06,13.06,0,1,0,23.76,10.85l21.06-46.14c0,3.76,0,60.84,0,162.62a15.68,15.68,0,0,0,31.35,0V340.77A24.89,24.89,0,0,1,90,338.55,26,26,0,0,1,76.36,323.89Z"></path><path class="cls-2" d="M111.22,338.47V387.2a15.53,15.53,0,0,0,14.28,15.39V324l-.76,1.66A25.9,25.9,0,0,1,111.22,338.47Z"></path><path class="cls-2" d="M105.51,150.75A30.54,30.54,0,1,0,75,120.22,30.53,30.53,0,0,0,105.51,150.75Z"></path><path class="cls-2" d="M212.68,307.08l6.46-14.15V269.75l5.29,11.59,15.86-34.76-19.76-43.29c-3-6.55-9.18-8.64-16.5-8.64H152.4c-7.34,0-13.51,2.07-16.49,8.64L87.77,308.74a14.43,14.43,0,1,0,26.26,12l23.28-51c0,38.51-.05,37-.05,179.72a17.32,17.32,0,1,0,34.64,0V346.21h12.64V449.45a17.32,17.32,0,1,0,34.64,0v-112A26,26,0,0,1,212,327.12,26.71,26.71,0,0,1,212.68,307.08Z"></path><path class="cls-2" d="M496.43,259,448.3,153.5c-3-6.59-9.24-8.63-16.49-8.63H380.17c-7.38,0-13.52,2.07-16.5,8.63l-5,11a45,45,0,0,1-10.19,22.32l-.18.39a26.89,26.89,0,0,1,18.56,14.44L415,307.08a25.48,25.48,0,0,1-2.68,26.15v66.43a17.33,17.33,0,0,0,34.65,0c0-95.46-.05-148.85-.05-179.72l23.27,51a14.43,14.43,0,0,0,26.26-12Z"></path><path class="cls-2" d="M367.31,328.83l-.76-1.67v79.51a17.28,17.28,0,0,0,33.1-7V342.58C387.36,346.74,372.77,340.81,367.31,328.83Z"></path><path class="cls-2" d="M406,138.37a33.75,33.75,0,1,0-33.75-33.75A33.76,33.76,0,0,0,406,138.37Z"></path><path class="cls-2" d="M356.14,206.51c-3-6.54-9.17-8.63-16.5-8.63H288c-7.38,0-13.51,2.09-16.49,8.63L223.38,312a14.44,14.44,0,0,0,26.27,12l23.27-51v55c0,.08-.05.15-.05.23V452.68a17.32,17.32,0,0,0,34.64,0V349.43h12.64V452.68a17.33,17.33,0,0,0,34.65,0V328.17c0-.08-.05-.15-.05-.23V273L378,324a14.43,14.43,0,0,0,26.26-12Z"></path></g></g></svg>