<svg xmlns="http://www.w3.org/2000/svg" xmlns:xlink="http://www.w3.org/1999/xlink" viewBox="0 0 33.43 34.87"><defs><style>.cls-1,.cls-4{fill:none;}.cls-2{clip-path:url(#clip-path);}.cls-3{fill:#82cde4;}.cls-4{stroke:#02838d;stroke-miterlimit:10;}</style><clipPath id="clip-path" transform="translate(0 0)"><rect class="cls-1" width="33.43" height="34.87"/></clipPath></defs><g id="Laag_2" data-name="Laag 2"><g id="Laag_1-2" data-name="Laag 1"><g class="cls-2"><path class="cls-3" d="M21.72,2l0-.11a4.5,4.5,0,0,0-.51.2c-.3.16-.57.38-.87.53a1.69,1.69,0,0,1-.69.22.61.61,0,0,1-.5-.89c0-.06.05-.13.09-.22l-.53.18c-.46.14-.52.24-.42.76a.77.77,0,0,1-.14.76.59.59,0,0,1-.74,0c-.2-.1-.39-.22-.65-.38.05.3.07.53.12.74s.12.35.15.53-.06.17-.09.25-.18-.06-.23-.13a1.61,1.61,0,0,1-.12-.33c-.13-.35-.27-.71-.41-1.1l-.64.48c-.39.29-.77.6-1.17.86A2,2,0,0,1,13,4.73,1,1,0,0,1,12.08,4a1,1,0,0,0-.38-.5c-.48-.24-1-.42-1.47-.62-.19-.08-.32-.06-.44.18-.22.42-.58.47-.86.09a2,2,0,0,1-.38-.86,10.74,10.74,0,0,1,0-1.4A12.64,12.64,0,0,0,7,1.34C5,2.15,3,3,1,3.84a.35.35,0,0,0-.15.25c0,1,0,2,.12,3a4.21,4.21,0,0,0,.76,2.29c.58.78,1.07.86,1.82.29.27-.21.55-.4.84-.59a.61.61,0,0,1,.85.16,2.31,2.31,0,0,1,.38.64A3.79,3.79,0,0,1,5.79,11c0,.74,0,1.48,0,2.22s.2,1,.8,1.11c.41.09.83.13,1.24.2.72.11,1,.4,1,1.22,0,.48,0,1,0,1.44,0,.21.06.43.1.7.4-.58.48-.65,1-.42.81.35,1.6.76,2.39,1.19a3.11,3.11,0,0,1,.72.6.75.75,0,0,1,.06,1.13,7.57,7.57,0,0,1-.57.7c-.36.45-.36.45,0,.89l.2.25c.33.42.33.57,0,1-.22.26-.45.49-.66.75s-.16.37.08.52a1.86,1.86,0,0,0,.46.19,9.68,9.68,0,0,0,2.84.15,1.41,1.41,0,0,0,1.39-.94,5.66,5.66,0,0,1,.79-1.16.82.82,0,0,1,.76-.34c.49.06.68.44.45.91s-.46.91-.69,1.37a1,1,0,0,0,0,.92A1.7,1.7,0,0,1,18,27.29a8.15,8.15,0,0,0-.37.78c.17.07.29.15.42.19A4.11,4.11,0,0,1,20.15,30a1.74,1.74,0,0,0,.3.4.35.35,0,0,0,.32.08.74.74,0,0,1,.77.1c.4.28.42.54,0,.84l-.17.16.34.16c.67.32.73.43.66,1.25,0,0,0,.09,0,.13-.08.83,0,1,.72.79.89-.26,1.78.13,2.65-.16,0,0,0,0,0,0a.38.38,0,0,0,.43-.41,4.18,4.18,0,0,0,0-.94c-.2-1-.43-2-.63-3.06a1.88,1.88,0,0,1,.25-1.55c.45-.64.86-1.32,1.35-1.92a6.76,6.76,0,0,1,1.19-1.08,1,1,0,0,1,1.48.11,6.84,6.84,0,0,1,1.66-1.61,5.59,5.59,0,0,0,.71-.67,1.34,1.34,0,0,0-.2-2.05l-.29-.22a.88.88,0,0,1-.09-1.49.4.4,0,0,0,.06-.56,14,14,0,0,1-.91-1.6,1.5,1.5,0,0,0-1.56-1,6.65,6.65,0,0,1-1.49-.29.51.51,0,0,1-.39-.62,5.74,5.74,0,0,1,.22-1.11A18,18,0,0,1,29.62,9s-.06-.1-.11-.16a14.24,14.24,0,0,0-2.75-2.29.69.69,0,0,0-.36-.11c-.44,0-.88,0-1.31,0a.62.62,0,0,1-.64-.4,4.11,4.11,0,0,1-.26-.66c-.15-.64-.29-1.29-.42-1.93-.1-.48-.22-.55-.62-.32-.24.14-.47.31-.71.45a.88.88,0,0,1-1.25-.29.54.54,0,0,1,0-.82c.16-.17.33-.33.5-.49m-.25,29c-.21-.18-.38-.28-.61-.15a.46.46,0,0,1-.65-.16,4.61,4.61,0,0,1-.28-.38,4.12,4.12,0,0,0-2.08-1.75c-.6-.22-.63-.4-.34-1a4.29,4.29,0,0,1,.24-.48,1.21,1.21,0,0,0,0-1.29,1.4,1.4,0,0,1,0-1.36l.75-1.48a.36.36,0,0,0-.58-.08,2.52,2.52,0,0,0-.49.54c-.25.38-.48.78-.69,1.18a.91.91,0,0,1-.67.51,8.83,8.83,0,0,1-3.62,0,2.15,2.15,0,0,1-.63-.26.68.68,0,0,1-.16-1.05c.13-.17.29-.32.43-.49l.46-.53c-.21-.27-.39-.52-.59-.75a.54.54,0,0,1,0-.71c.21-.3.44-.58.67-.86.44-.55.44-.68-.09-1.09a8.83,8.83,0,0,0-2.68-1.48c-.25-.08-.47-.13-.64.21a.35.35,0,0,1-.65-.09,3.05,3.05,0,0,1-.14-.8c0-.46,0-.91,0-1.37,0-.64-.14-.77-.7-.86s-.83-.11-1.24-.2a1.3,1.3,0,0,1-1.09-1.51c0-.76.06-1.52.05-2.28A3.15,3.15,0,0,0,5.2,9.85c-.21-.49-.44-.54-.85-.26-.25.16-.49.36-.73.54A1.2,1.2,0,0,1,1.76,10,3.72,3.72,0,0,1,.69,7.61C.57,6.35.55,5.07.5,3.8a.4.4,0,0,1,.16-.27c1.9-.8,3.79-1.61,5.7-2.38a18.14,18.14,0,0,1,2-.6c.52-.14.6,0,.53.6a5.06,5.06,0,0,0,0,1.1,1.61,1.61,0,0,0,.25.61c.12.18.25.17.37,0,.27-.47.31-.5.77-.34a13.6,13.6,0,0,1,1.58.67,1.39,1.39,0,0,1,.52.66c.15.37.37.57.71.52A3.19,3.19,0,0,0,14.19,4a15,15,0,0,0,1.23-.91A3.87,3.87,0,0,1,16,2.73a1.12,1.12,0,0,1,.46,0,.91.91,0,0,1,.37,0c.25.12.48.3.73.43a.45.45,0,0,0,.34,0c.05,0,.06-.21,0-.32-.13-.81,0-1,.73-1.26a4.09,4.09,0,0,1,.49-.18c.35-.08.52.17.4.54l-.07.18c-.11.26,0,.44.25.39a1.49,1.49,0,0,0,.49-.2c.29-.17.57-.37.86-.55a1.6,1.6,0,0,1,.3-.13.54.54,0,0,1,.7.23c.11.31-.09.48-.26.66l-.43.42c.27.49.54.59,1,.34.2-.11.38-.26.58-.37a1.47,1.47,0,0,1,.51-.2c.37-.06.55.09.64.49.13.63.26,1.27.4,1.9a3.66,3.66,0,0,0,.13.44c.18.56.21.57.75.57a10.59,10.59,0,0,1,1.13,0,1.14,1.14,0,0,1,.47.16A14.87,14.87,0,0,1,29.65,8.5a2.24,2.24,0,0,1,.27.34.36.36,0,0,1,0,.52,3.78,3.78,0,0,0-.84,1.39c-.43,1.12-.91,2.22-1.27,3.36-.3,1-.17.89.58,1s1.24.15,1.85.26a.57.57,0,0,1,.35.27c.3.48.58,1,.86,1.47s.4.68.58,1a.66.66,0,0,1-.13.92c-.37.42-.36.61.07,1l.22.16a1.72,1.72,0,0,1,.31,2.59,6.63,6.63,0,0,1-1,1A5,5,0,0,0,30,25.33c-.1.19-.22.16-.34,0-.31-.45-.56-.54-1-.26a4.17,4.17,0,0,0-1,.84c-.54.66-1,1.38-1.51,2.07a1.64,1.64,0,0,0-.22,1.33c.22,1,.45,2,.64,3a4.26,4.26,0,0,1,0,1.07.72.72,0,0,1-.76.75h0c-.86.37-1.75-.09-2.64.16s-1.2-.11-1.09-1.19c.08-.77.08-.77-.53-1.06a.81.81,0,0,1-.21-.1c-.12-.1-.31-.22-.31-.32s.16-.3.26-.43a.85.85,0,0,1,.22-.18" transform="translate(0 0)"/><path class="cls-4" d="M21.72,2l0-.11a4.5,4.5,0,0,0-.51.2c-.3.16-.57.38-.87.53a1.69,1.69,0,0,1-.69.22.61.61,0,0,1-.5-.89c0-.06.05-.13.09-.22l-.53.18c-.46.14-.52.24-.42.76a.77.77,0,0,1-.14.76.59.59,0,0,1-.74,0c-.2-.1-.39-.22-.65-.38.05.3.07.53.12.74s.12.35.15.53-.06.17-.09.25-.18-.06-.23-.13a1.61,1.61,0,0,1-.12-.33c-.13-.35-.27-.71-.41-1.1l-.64.48c-.39.29-.77.6-1.17.86A2,2,0,0,1,13,4.73,1,1,0,0,1,12.08,4a1,1,0,0,0-.38-.5c-.48-.24-1-.42-1.47-.62-.19-.08-.32-.06-.44.18-.22.42-.58.47-.86.09a2,2,0,0,1-.38-.86,10.74,10.74,0,0,1,0-1.4A12.64,12.64,0,0,0,7,1.34C5,2.15,3,3,1,3.84a.35.35,0,0,0-.15.25c0,1,0,2,.12,3a4.21,4.21,0,0,0,.76,2.29c.58.78,1.07.86,1.82.29.27-.21.55-.4.84-.59a.61.61,0,0,1,.85.16,2.31,2.31,0,0,1,.38.64A3.79,3.79,0,0,1,5.79,11c0,.74,0,1.48,0,2.22s.2,1,.8,1.11c.41.09.83.13,1.24.2.72.11,1,.4,1,1.22,0,.48,0,1,0,1.44,0,.21.06.43.1.7.4-.58.48-.65,1-.42.81.35,1.6.76,2.39,1.19a3.11,3.11,0,0,1,.72.6.75.75,0,0,1,.06,1.13,7.57,7.57,0,0,1-.57.7c-.36.45-.36.45,0,.89l.2.25c.33.42.33.57,0,1-.22.26-.45.49-.66.75s-.16.37.08.52a1.86,1.86,0,0,0,.46.19,9.68,9.68,0,0,0,2.84.15,1.41,1.41,0,0,0,1.39-.94,5.66,5.66,0,0,1,.79-1.16.82.82,0,0,1,.76-.34c.49.06.68.44.45.91s-.46.91-.69,1.37a1,1,0,0,0,0,.92A1.7,1.7,0,0,1,18,27.29a8.15,8.15,0,0,0-.37.78c.17.07.29.15.42.19A4.11,4.11,0,0,1,20.15,30a1.74,1.74,0,0,0,.3.4.35.35,0,0,0,.32.08.74.74,0,0,1,.77.1c.4.28.42.54,0,.84l-.17.16.34.16c.67.32.73.43.66,1.25,0,0,0,.09,0,.13-.08.83,0,1,.72.79.89-.26,1.78.13,2.65-.16,0,0,0,0,0,0a.38.38,0,0,0,.43-.41,4.18,4.18,0,0,0,0-.94c-.2-1-.43-2-.63-3.06a1.88,1.88,0,0,1,.25-1.55c.45-.64.86-1.32,1.35-1.92a6.76,6.76,0,0,1,1.19-1.08,1,1,0,0,1,1.48.11,6.84,6.84,0,0,1,1.66-1.61,5.59,5.59,0,0,0,.71-.67,1.34,1.34,0,0,0-.2-2.05l-.29-.22a.88.88,0,0,1-.09-1.49.4.4,0,0,0,.06-.56,14,14,0,0,1-.91-1.6,1.5,1.5,0,0,0-1.56-1,6.65,6.65,0,0,1-1.49-.29.51.51,0,0,1-.39-.62,5.74,5.74,0,0,1,.22-1.11A18,18,0,0,1,29.62,9s-.06-.1-.11-.16a14.24,14.24,0,0,0-2.75-2.29.69.69,0,0,0-.36-.11c-.44,0-.88,0-1.31,0a.62.62,0,0,1-.64-.4,4.11,4.11,0,0,1-.26-.66c-.15-.64-.29-1.29-.42-1.93-.1-.48-.22-.55-.62-.32-.24.14-.47.31-.71.45a.88.88,0,0,1-1.25-.29.54.54,0,0,1,0-.82C21.38,2.33,21.55,2.17,21.72,2Zm-.25,29c-.21-.18-.38-.28-.61-.15a.46.46,0,0,1-.65-.16,4.61,4.61,0,0,1-.28-.38,4.12,4.12,0,0,0-2.08-1.75c-.6-.22-.63-.4-.34-1a4.29,4.29,0,0,1,.24-.48,1.21,1.21,0,0,0,0-1.29,1.4,1.4,0,0,1,0-1.36l.75-1.48a.36.36,0,0,0-.58-.08,2.52,2.52,0,0,0-.49.54c-.25.38-.48.78-.69,1.18a.91.91,0,0,1-.67.51,8.83,8.83,0,0,1-3.62,0,2.15,2.15,0,0,1-.63-.26.68.68,0,0,1-.16-1.05c.13-.17.29-.32.43-.49l.46-.53c-.21-.27-.39-.52-.59-.75a.54.54,0,0,1,0-.71c.21-.3.44-.58.67-.86.44-.55.44-.68-.09-1.09a8.83,8.83,0,0,0-2.68-1.48c-.25-.08-.47-.13-.64.21a.35.35,0,0,1-.65-.09,3.05,3.05,0,0,1-.14-.8c0-.46,0-.91,0-1.37,0-.64-.14-.77-.7-.86s-.83-.11-1.24-.2a1.3,1.3,0,0,1-1.09-1.51c0-.76.06-1.52.05-2.28A3.15,3.15,0,0,0,5.2,9.85c-.21-.49-.44-.54-.85-.26-.25.16-.49.36-.73.54A1.2,1.2,0,0,1,1.76,10,3.72,3.72,0,0,1,.69,7.61C.57,6.35.55,5.07.5,3.8a.4.4,0,0,1,.16-.27c1.9-.8,3.79-1.61,5.7-2.38a18.14,18.14,0,0,1,2-.6c.52-.14.6,0,.53.6a5.06,5.06,0,0,0,0,1.1,1.61,1.61,0,0,0,.25.61c.12.18.25.17.37,0,.27-.47.31-.5.77-.34a13.6,13.6,0,0,1,1.58.67,1.39,1.39,0,0,1,.52.66c.15.37.37.57.71.52A3.19,3.19,0,0,0,14.19,4a15,15,0,0,0,1.23-.91A3.87,3.87,0,0,1,16,2.73a1.12,1.12,0,0,1,.46,0,.91.91,0,0,1,.37,0c.25.12.48.3.73.43a.45.45,0,0,0,.34,0c.05,0,.06-.21,0-.32-.13-.81,0-1,.73-1.26a4.09,4.09,0,0,1,.49-.18c.35-.08.52.17.4.54l-.07.18c-.11.26,0,.44.25.39a1.49,1.49,0,0,0,.49-.2c.29-.17.57-.37.86-.55a1.6,1.6,0,0,1,.3-.13.54.54,0,0,1,.7.23c.11.31-.09.48-.26.66l-.43.42c.27.49.54.59,1,.34.2-.11.38-.26.58-.37a1.47,1.47,0,0,1,.51-.2c.37-.06.55.09.64.49.13.63.26,1.27.4,1.9a3.66,3.66,0,0,0,.13.44c.18.56.21.57.75.57a10.59,10.59,0,0,1,1.13,0,1.14,1.14,0,0,1,.47.16A14.87,14.87,0,0,1,29.65,8.5a2.24,2.24,0,0,1,.27.34.36.36,0,0,1,0,.52,3.78,3.78,0,0,0-.84,1.39c-.43,1.12-.91,2.22-1.27,3.36-.3,1-.17.89.58,1s1.24.15,1.85.26a.57.57,0,0,1,.35.27c.3.48.58,1,.86,1.47s.4.68.58,1a.66.66,0,0,1-.13.92c-.37.42-.36.61.07,1l.22.16a1.72,1.72,0,0,1,.31,2.59,6.63,6.63,0,0,1-1,1A5,5,0,0,0,30,25.33c-.1.19-.22.16-.34,0-.31-.45-.56-.54-1-.26a4.17,4.17,0,0,0-1,.84c-.54.66-1,1.38-1.51,2.07a1.64,1.64,0,0,0-.22,1.33c.22,1,.45,2,.64,3a4.26,4.26,0,0,1,0,1.07.72.72,0,0,1-.76.75h0c-.86.37-1.75-.09-2.64.16s-1.2-.11-1.09-1.19c.08-.77.08-.77-.53-1.06a.81.81,0,0,1-.21-.1c-.12-.1-.31-.22-.31-.32s.16-.3.26-.43A.85.85,0,0,1,21.47,31Z" transform="translate(0 0)"/></g></g></g></svg>