<svg xmlns="http://www.w3.org/2000/svg" xmlns:xlink="http://www.w3.org/1999/xlink" id="Laag_1" x="0px" y="0px" viewBox="0 0 29.1 35.8" style="enable-background:new 0 0 29.1 35.8;" xml:space="preserve">
<style type="text/css">
	.st0{clip-path:url(#SVGID_2_);}
	.st1{fill:#02838D;}
</style>
<g id="Laag_2_1_">
	<g id="Laag_1-2">
		<g>
			<defs>
				<rect id="SVGID_1_" y="0" width="29.1" height="35.8"></rect>
			</defs>
			<clipPath id="SVGID_2_">
				<use xlink:href="#SVGID_1_" style="overflow:visible;"></use>
			</clipPath>
			<g class="st0">
				<path class="st1" d="M14.4,2c-4.4,0-7.9,3.5-7.9,7.9s3.5,7.9,7.9,7.9c4.3,0,7.9-3.5,7.9-7.8C22.3,5.6,18.8,2,14.4,2      C14.4,2,14.4,2,14.4,2 M4.5,10c0-5.5,4.5-10,10-10s10,4.5,10,10c0,5.5-4.5,10-10,10c0,0,0,0-0.1,0C8.9,20,4.5,15.5,4.5,10"></path>
				<path class="st1" d="M29,35.8h-2v-0.4c0-2.1,0-4.2,0-6.3c0-3.2-2.2-6.1-5.4-6.8c-0.5-0.1-1.1-0.2-1.6-0.2c-3.6,0-7.3,0-10.9,0      c-3.5-0.1-6.5,2.5-7,5.9c-0.1,0.4-0.1,0.7-0.1,1.1v6.5H0v-6.6c0-4.3,2.9-8,7.1-8.8c0.7-0.1,1.3-0.2,2-0.2c3.6,0,7.2,0,10.8,0      c4.3-0.1,8,2.9,8.9,7.1c0.1,0.6,0.2,1.2,0.2,1.9c0,2.1,0,4.3,0,6.4C29,35.6,29,35.7,29,35.8"></path>
			</g>
		</g>
	</g>
</g>
</svg>