<svg xmlns="http://www.w3.org/2000/svg" xmlns:xlink="http://www.w3.org/1999/xlink" id="Laag_1" x="0px" y="0px" viewBox="0 0 47.4 55" style="enable-background:new 0 0 47.4 55;" xml:space="preserve">
<style type="text/css">
	.st0{clip-path:url(#SVGID_2_);}
	.st1{fill:#02838D;}
	.st2{fill:#214051;}
</style>
<g id="Laag_2_1_">
	<g id="Laag_1-2">
		<g>
			<defs>
				<rect id="SVGID_1_" y="0" width="47.4" height="55"></rect>
			</defs>
			<clipPath id="SVGID_2_">
				<use xlink:href="#SVGID_1_" style="overflow:visible;"></use>
			</clipPath>
			<g class="st0">
				<path class="st1" d="M36.8,41l9.1-3.9L31.5,1.5L5.8,12.4l0.4,1l12.8-2.5l10.6-2.1c0.8-0.2,1.1,0,1.2,0.7      c1.3,7.1,2.7,14.2,4,21.3C35.5,34.2,36.1,37.6,36.8,41 M7.8,44.3c1.2-0.1,1.5-0.1,1.5,0.4c0.1,0.9-0.7,0.8-1.2,1l0.3,1.7      c0.6,0,1.3-0.4,1.5,0.4c0.2,1-0.7,0.8-1.2,1.1c0.1,0.5,0.2,1.1,0.3,1.6c0.6,0,1.3-0.5,1.5,0.4s-0.7,0.8-1.2,1      c0.1,0.5,0.2,1,0.3,1.5L36.8,48c-2.4-12.6-4.8-25.2-7.2-37.8L2.4,15.6c0,0.4,0.1,0.7,0.1,1C3,16.6,3.8,16.2,4,17      c0.3,1-0.7,0.8-1.2,1.1c0.1,0.6,0.2,1.1,0.3,1.6c1.1-0.1,1.4-0.1,1.5,0.4c0.1,1-0.7,0.8-1.2,1c0.1,0.6,0.2,1.1,0.3,1.6      c0.6,0,1.3-0.4,1.5,0.4c0.3,1-0.7,0.9-1.2,1.1c0.1,0.6,0.2,1.1,0.3,1.6c0.6,0,1.3-0.4,1.5,0.4s-0.7,0.8-1.2,1      c0.1,0.6,0.2,1.1,0.3,1.6c0.6-0.1,1.2-0.5,1.4,0.3c0.2,1-0.7,0.9-1.2,1.1c0.1,0.6,0.2,1.1,0.3,1.6c0.6,0,1.3-0.5,1.5,0.4      s-0.7,0.8-1.2,1c0.1,0.6,0.2,1.1,0.3,1.6c0.6,0,1.3-0.5,1.5,0.4s-0.7,0.8-1.2,1.1c0.1,0.5,0.2,1.1,0.3,1.6      c0.6,0,1.3-0.5,1.5,0.4s-0.7,0.8-1.2,1L7.2,41c0.6,0,1.3-0.4,1.5,0.4s-0.7,0.8-1.2,1c0.1,0.5,0.2,1.1,0.3,1.6 M6.9,46.2      c-1.2,0.1-1.5,0-1.5-0.5s0.2-0.7,1.2-0.9c-0.1-0.5-0.2-1.1-0.3-1.6c-0.6,0-1.4,0.5-1.5-0.5s0.7-0.7,1.2-0.9      c-0.1-0.5-0.2-1.1-0.3-1.7c-0.6,0-1.3,0.4-1.5-0.5c-0.1-0.5,0.2-0.7,1.2-1c-0.1-0.5-0.2-1.1-0.3-1.6c-0.6-0.1-1.4,0.5-1.5-0.5      c-0.1-0.8,0.7-0.7,1.2-0.9l-0.3-1.6c-0.6-0.1-1.4,0.5-1.5-0.5s0.7-0.7,1.2-1c-0.1-0.5-0.2-1.1-0.3-1.6c-0.6,0-1.4,0.5-1.5-0.5      s0.7-0.7,1.2-0.9c-0.1-0.5-0.2-1.1-0.3-1.6c-0.5-0.1-1.4,0.5-1.5-0.6c-0.1-0.8,0.7-0.7,1.2-0.9c-0.1-0.5-0.2-1.1-0.3-1.6      C2.1,24.5,1.3,25,1.2,24s0.7-0.8,1.2-1c-0.1-0.5-0.2-1.1-0.3-1.6c-0.6,0-1.3,0.5-1.5-0.5c-0.1-0.5,0.2-0.7,1.2-0.9      c-0.1-0.5-0.2-1.1-0.3-1.6C1,18.5,0.2,19,0,18c-0.1-0.5,0.2-0.7,1.2-1L1,15.7c-0.2-0.9,0-1.2,0.9-1.3l3-0.6l-0.5-1.2      c-0.2-0.6-0.2-0.9,0.5-1.1L10.5,9l20.8-8.8c0.8-0.3,1-0.3,1.4,0.6c4.8,12,9.7,24,14.6,36c0.4,0.9,0.3,1.1-0.6,1.5l-9.1,3.9      l-0.4,0.2c0.2,1.3,0.5,2.6,0.7,3.9c0.1,0.6,0.2,1.3,0.4,1.9s-0.1,1-0.7,1.1l-18,3.6l-9.9,2c-0.9,0.2-1.1,0-1.3-0.9      c-0.1-0.5-0.2-1-0.3-1.6c0,0,0-0.1-0.1-0.2c-0.6,0-1.3,0.5-1.5-0.6c-0.1-0.5,0.2-0.6,1.5-0.7c-0.1-0.5-0.2-1.1-0.3-1.6      C7,49.2,6.1,49.8,6,48.8c-0.1-0.8,0.7-0.7,1.2-0.9C7.1,47.3,7,46.8,6.9,46.2"></path>
				<path class="st2" d="M19.5,29.4c0.1,0.7,0.2,1.3,0.4,2H20c0.3-0.8,0.7-1.5,1-2.4L19.5,29.4 M16.6,30c0.7,0.6,1.2,1.2,1.8,1.8      l0.1-0.1c-0.1-0.7-0.2-1.3-0.4-2L16.6,30 M17.6,18.5l-0.2,0.2c0.1,0.7,0.3,1.4,0.4,2.1l1.7-0.3L17.6,18.5 M16,19l-0.2-0.1      l-1,2.5l1.7-0.4L16,19 M19.2,18.1c0.5,0.6,1,1.2,1.5,1.8c0.1,0.1,0.2,0.2,0.3,0.2c0.5-0.1,1-0.2,1.7-0.3      C21.7,19,20.5,18.4,19.2,18.1 M14.2,19.1c-1.1,0.7-2,1.7-2.6,2.9c0.6-0.1,1.1-0.2,1.5-0.3c0.2-0.1,0.3-0.2,0.3-0.4      C13.8,20.7,14,20,14.2,19.1 M24.5,28.4c-0.7,0.1-1.3,0.3-1.8,0.4c-0.1,0-0.2,0.1-0.2,0.2c-0.4,0.9-0.7,1.8-1.1,2.8      C22.8,31,23.8,29.8,24.5,28.4 M13.3,30.7c1,1.1,2.4,1.7,3.9,1.8c-0.6-0.6-1.2-1.3-1.9-2c-0.1-0.1-0.3-0.2-0.4-0.1      C14.4,30.5,13.8,30.6,13.3,30.7 M25.3,24.6l-2.4,0.5v2.3c0.7-0.1,1.3-0.3,1.9-0.4c0.1-0.1,0.3-0.2,0.3-0.4      C25.2,26,25.2,25.3,25.3,24.6 M12.1,29.5l2.2-0.5L13.5,27l-2.4,0.5C11.5,28.2,11.8,28.9,12.1,29.5 M17.4,26.2l-2.6,0.6      c0.2,0.6,0.5,1.1,0.7,1.6c0.1,0.3,0.3,0.5,0.6,0.4c0.1,0,0.1,0,0.2-0.1c0.4-0.1,0.8-0.2,1.2-0.3c0.2-0.1,0.3-0.2,0.3-0.4      C17.7,27.4,17.5,26.8,17.4,26.2 M18.8,26c0.1,0.8,0.3,1.5,0.4,2.2l2.2-0.4v-2.3L18.8,26 M21.7,21.4c0.3,0.8,0.6,1.5,0.9,2.3      l2.4-0.5c-0.2-0.5-0.4-0.9-0.6-1.3c-0.5-0.9-0.5-0.9-1.5-0.7L21.7,21.4 M13.2,23.2c-0.7,0.1-1.3,0.2-1.9,0.4      c-0.1,0.1-0.3,0.2-0.3,0.3c-0.1,0.7-0.1,1.5-0.2,2.3l2.4-0.5V23.2z M21.3,24c-0.3-0.7-0.5-1.4-0.9-2c-0.1-0.2-0.2-0.3-0.4-0.2      c-0.6,0.1-1.3,0.2-2,0.4c0.2,0.8,0.3,1.6,0.5,2.4L21.3,24 M14.6,22.8v2.5l2.7-0.5c-0.2-0.8-0.3-1.6-0.5-2.4L14.6,22.8 M18.4,34      c-4.7,0.2-8.6-3.5-8.8-8.2C9.3,21,13,17,17.7,16.7c4.7-0.2,8.6,3.5,8.8,8.2c0,0,0,0.1,0,0.1c0.3,4.7-3.3,8.7-8,9      C18.4,34,18.4,34,18.4,34"></path>
				<path class="st2" d="M12.5,39.2c-0.6,0-0.8-0.2-0.9-0.7c0-0.4,0.2-0.7,0.6-0.8c0,0,0,0,0,0c1-0.2,2-0.4,3-0.6l12.9-2.6l0.3-0.1      c0.5-0.1,0.8,0,1,0.5s-0.2,0.7-0.8,0.8l-8.2,1.7l-7.6,1.5L12.5,39.2"></path>
				<path class="st2" d="M13.7,45.5c-0.5,0-0.8-0.1-0.9-0.6s0.2-0.7,0.7-0.8l6.4-1.3l9.5-1.9c0.2,0,0.4-0.1,0.5-0.1      c0.3-0.1,0.6,0.1,0.7,0.5c0,0,0,0,0,0.1c0.1,0.3-0.1,0.7-0.4,0.8c0,0-0.1,0-0.1,0c-0.8,0.2-1.7,0.3-2.5,0.5l-13.5,2.7L13.7,45.5      "></path>
				<path class="st2" d="M13,42.3c-0.5,0-0.8-0.2-0.9-0.6s0.2-0.7,0.7-0.8l6.6-1.3l9.6-1.9c0.6-0.1,0.9,0,1,0.5s-0.2,0.8-0.7,0.9      l-16.1,3.2L13,42.3"></path>
			</g>
		</g>
	</g>
</g>
</svg>