<?xml version="1.0" encoding="utf-8"?>
<!-- Generator: Adobe Illustrator 24.1.2, SVG Export Plug-In . SVG Version: 6.00 Build 0)  -->
<svg version="1.1" id="Laag_1" xmlns="http://www.w3.org/2000/svg" xmlns:xlink="http://www.w3.org/1999/xlink" x="0px" y="0px"
	 viewBox="0 0 35.4 41" style="enable-background:new 0 0 35.4 41;" xml:space="preserve">
<style type="text/css">
	.st0{clip-path:url(#SVGID_2_);}
	.st1{fill:#02838D;}
</style>
<g id="Laag_2_1_">
	<g id="Laag_1-2">
		<g>
			<defs>
				<rect id="SVGID_1_" y="0" width="35.4" height="41"/>
			</defs>
			<clipPath id="SVGID_2_">
				<use xlink:href="#SVGID_1_"  style="overflow:visible;"/>
			</clipPath>
			<g class="st0">
				<path class="st1" d="M15.4,12.7c0-1.3,1-2.3,2.3-2.3s2.3,1,2.3,2.3c0,1.3-1,2.3-2.3,2.3c0,0,0,0,0,0C16.5,15,15.4,14,15.4,12.7
					 M21.4,15c0.4-0.7,0.7-1.5,0.7-2.3c-0.1-2.4-2.2-4.3-4.6-4.1c-2.2,0.1-4,1.9-4.1,4.1c0,0.8,0.2,1.6,0.6,2.3
					c-2.8,0.2-5,2.5-5,5.4v8.3c0,1.5,1.2,2.7,2.6,2.7c0.2,0,0.4,0,0.6-0.1V40c0,0.6,0.5,1,1,1s1-0.5,1-1V21.5c0-0.6-0.5-1-1-1
					s-1,0.5-1,1v7.2c0,0.3-0.3,0.6-0.6,0.6c-0.3,0-0.6-0.3-0.6-0.6v-8.3c0-1.8,1.5-3.3,3.3-3.3h6.8c1.8,0,3.3,1.5,3.3,3.3v8.2
					c0,0.4-0.3,0.7-0.7,0.7c0,0,0,0,0,0c-0.4,0-0.7-0.3-0.7-0.7v-7c0-0.6-0.5-1-1-1c-0.6,0-1,0.5-1,1V40c0,0.6,0.5,1,1,1
					c0.6,0,1-0.5,1-1v-8.7c0.2,0.1,0.5,0.1,0.7,0.1c1.5,0,2.7-1.2,2.7-2.8c0,0,0,0,0,0v-8.2C26.4,17.5,24.2,15.2,21.4,15"/>
				<path class="st1" d="M13,2.1c0.9,0,1.6,0.7,1.6,1.7c0,0.9-0.7,1.6-1.6,1.6c-0.9,0-1.6-0.7-1.6-1.6C11.4,2.8,12.1,2.1,13,2.1
					 M13,7.4c2,0,3.7-1.6,3.7-3.7c0-2-1.6-3.7-3.7-3.7S9.3,1.6,9.3,3.7c0,0,0,0,0,0C9.3,5.7,11,7.4,13,7.4"/>
				<path class="st1" d="M22.4,2.1c0.9,0,1.6,0.7,1.6,1.7c0,0.9-0.7,1.6-1.6,1.6c-0.9,0-1.6-0.7-1.6-1.6l0,0
					C20.8,2.8,21.5,2.1,22.4,2.1 M22.4,7.4c2,0,3.7-1.6,3.7-3.7c0-2-1.6-3.7-3.7-3.7s-3.7,1.6-3.7,3.7c0,0,0,0,0,0
					C18.7,5.7,20.4,7.4,22.4,7.4"/>
				<path class="st1" d="M7.5,9.7c1,0,1.8,0.8,1.8,1.8s-0.8,1.8-1.8,1.8s-1.8-0.8-1.8-1.8C5.7,10.5,6.5,9.7,7.5,9.7 M4.6,15.3h2.8
					c2.1,0,3.9-1.7,3.9-3.8S9.6,7.6,7.5,7.6c-2.1,0-3.9,1.7-3.9,3.8c0,0,0,0,0,0c0,0.6,0.2,1.3,0.5,1.8C1.8,13.6,0,15.6,0,18v7
					c0,1.3,1.1,2.4,2.4,2.4c0.1,0,0.2,0,0.3,0V33c0,0.6,0.5,1,1,1s1-0.5,1-1V19c0-0.6-0.5-1-1-1s-1,0.5-1,1l0,0v6
					c0,0.2-0.2,0.4-0.3,0.4C2.2,25.4,2,25.2,2,25v-7C2.1,16.6,3.2,15.4,4.6,15.3"/>
				<path class="st1" d="M26.1,11.5c0-1,0.8-1.8,1.8-1.8c1,0,1.8,0.8,1.8,1.8s-0.8,1.8-1.8,1.8l0,0C27,13.3,26.2,12.5,26.1,11.5
					 M31.3,13.3c0.3-0.6,0.5-1.2,0.5-1.8c0-2.1-1.7-3.8-3.9-3.8s-3.8,1.7-3.8,3.9s1.7,3.8,3.9,3.8c0,0,0,0,0,0h2.8
					c1.4,0,2.6,1.2,2.5,2.6v7c0,0.2-0.2,0.3-0.3,0.3c-0.2,0-0.3-0.2-0.3-0.3l0,0v-6c0-0.6-0.5-1-1-1c-0.6,0-1,0.5-1,1v14
					c0,0.6,0.5,1,1,1c0.6,0,1-0.5,1-1v-5.7c0.1,0,0.2,0,0.3,0c1.3,0,2.4-1.1,2.4-2.4c0,0,0,0,0,0V18C35.4,15.6,33.7,13.7,31.3,13.3"
					/>
			</g>
		</g>
	</g>
</g>
</svg>
