<svg xmlns="http://www.w3.org/2000/svg" xmlns:xlink="http://www.w3.org/1999/xlink" id="Laag_1" x="0px" y="0px" viewBox="0 0 47.4 31.5" style="enable-background:new 0 0 47.4 31.5;" xml:space="preserve">
<style type="text/css">
	.st0{clip-path:url(#SVGID_2_);}
	.st1{fill:#02838D;}
</style>
<g id="Laag_2_1_">
	<g id="Laag_1-2">
		<g>
			<defs>
				<rect id="SVGID_1_" y="0" width="47.4" height="31.5"></rect>
			</defs>
			<clipPath id="SVGID_2_">
				<use xlink:href="#SVGID_1_" style="overflow:visible;"></use>
			</clipPath>
			<g class="st0">
				<path class="st1" d="M23.7,15.5l17.4-6.2L23.7,3.2L6.3,9.4L23.7,15.5 M24.2,18.7c-0.3,0.1-0.7,0.1-1,0c-3.8-1.2-7.7-2.7-11.4-4      v9.1l11.8,4.4l12-4.4v-9.1L24.2,18.7z M1.1,7.9l22.1-7.8c0.4-0.1,0.8-0.1,1.1,0l22.1,7.8c0.8,0.3,1.3,1.1,1,2      c-0.2,0.5-0.5,0.8-1,1l-7.5,2.7v11.3c0,0.7-0.5,1.3-1.2,1.5l-13.5,5c-0.4,0.1-0.9,0.1-1.3,0l-13.4-5c-0.6-0.2-1-0.8-1-1.5V13.5      l-2.3-0.8v14.7c-0.1,0.9-0.9,1.6-1.8,1.5c-0.8-0.1-1.4-0.7-1.5-1.5V11.5l-1.9-0.7c-0.8-0.3-1.2-1.2-1-2C0.3,8.4,0.6,8.1,1.1,7.9      "></path>
			</g>
		</g>
	</g>
</g>
</svg>