<svg xmlns="http://www.w3.org/2000/svg" xmlns:xlink="http://www.w3.org/1999/xlink" viewBox="0 0 35.09 35.26"><defs><style>.cls-1{fill:none;}.cls-2{clip-path:url(#clip-path);}.cls-3{fill:#82cde4;}.cls-4{fill:#214051;stroke:#214051;}.cls-4,.cls-5{stroke-miterlimit:10;stroke-width:0.5px;}.cls-5{fill:#02838d;stroke:#02838d;}</style><clipPath id="clip-path" transform="translate(0 0)"><rect class="cls-1" width="35.09" height="35.26"></rect></clipPath></defs><g id="Laag_2" data-name="Laag 2"><g id="Laag_1-2" data-name="Laag 1"><g class="cls-2"><path class="cls-3" d="M32.83,1.3,17.36,18.57l-4.75-6.84A1.15,1.15,0,0,0,11,11.39a1.23,1.23,0,0,0-.33,1.68l.05.08,5.58,8a1.15,1.15,0,0,0,.88.5h.07a1.14,1.14,0,0,0,.85-.4L34.53,2.94a1.23,1.23,0,0,0-.06-1.7,1.13,1.13,0,0,0-1.65.06Z" transform="translate(0 0)"></path><path class="cls-4" d="M32.83,1.3,17.36,18.57l-4.75-6.84A1.15,1.15,0,0,0,11,11.39a1.23,1.23,0,0,0-.33,1.68l.05.08,5.58,8a1.15,1.15,0,0,0,.88.5h.07a1.14,1.14,0,0,0,.85-.4L34.53,2.94a1.23,1.23,0,0,0-.06-1.7,1.13,1.13,0,0,0-1.65.06Z" transform="translate(0 0)"></path><path class="cls-3" d="M32,13.21a1.21,1.21,0,0,0-.91,1.43,15.85,15.85,0,0,1,.28,3c0,8.26-6.44,15-14.38,15S2.59,25.89,2.59,17.63,9,2.68,17,2.68a14,14,0,0,1,6.84,1.8A1.15,1.15,0,0,0,25.4,4a1.23,1.23,0,0,0-.47-1.64,16.4,16.4,0,0,0-22.66,7A17.73,17.73,0,0,0,9,32.91a16.41,16.41,0,0,0,22.66-7,17.88,17.88,0,0,0,2-8.26,18.47,18.47,0,0,0-.34-3.47A1.17,1.17,0,0,0,32,13.21" transform="translate(0 0)"></path><path class="cls-5" d="M32,13.21a1.21,1.21,0,0,0-.91,1.43,15.85,15.85,0,0,1,.28,3c0,8.26-6.44,15-14.38,15S2.59,25.89,2.59,17.63,9,2.68,17,2.68a14,14,0,0,1,6.84,1.8A1.15,1.15,0,0,0,25.4,4a1.23,1.23,0,0,0-.47-1.64,16.4,16.4,0,0,0-22.66,7A17.73,17.73,0,0,0,9,32.91a16.41,16.41,0,0,0,22.66-7,17.88,17.88,0,0,0,2-8.26,18.47,18.47,0,0,0-.34-3.47A1.17,1.17,0,0,0,32,13.21Z" transform="translate(0 0)"></path></g></g></g></svg>