<?xml version="1.0" encoding="utf-8"?>
<!-- Generator: Adobe Illustrator 24.1.2, SVG Export Plug-In . SVG Version: 6.00 Build 0)  -->
<svg version="1.1" id="Laag_1" xmlns="http://www.w3.org/2000/svg" xmlns:xlink="http://www.w3.org/1999/xlink" x="0px" y="0px"
	 viewBox="0 0 37.6 38.7" style="enable-background:new 0 0 37.6 38.7;" xml:space="preserve">
<style type="text/css">
	.st0{clip-path:url(#SVGID_2_);}
	.st1{fill:#02838D;}
</style>
<g id="Laag_2_1_">
	<g id="Laag_1-2">
		<g>
			<defs>
				<rect id="SVGID_1_" y="0" width="37.6" height="38.7"/>
			</defs>
			<clipPath id="SVGID_2_">
				<use xlink:href="#SVGID_1_"  style="overflow:visible;"/>
			</clipPath>
			<g class="st0">
				<path class="st1" d="M21.9,29.2l1.4-2.6l12.4-4.6L36,24L21.9,29.2z M22.7,24.8l-2,3.7l-0.5-2.7L22.7,24.8z M7.9,26.8L23,21.2
					l0.4,1.9L8.2,28.7L7.9,26.8z M1.3,2.6C1.2,2,1.6,1.5,2.1,1.4c0,0,0,0,0,0h0.2c0.5,0,0.9,0.3,1,0.8c0.1,0.5-0.2,1.1-0.8,1.2
					c0,0,0,0,0,0C2,3.5,1.5,3.2,1.3,2.6C1.3,2.6,1.3,2.6,1.3,2.6 M19.1,1.6l0.4,1.9L4.3,9L4,7.1L19.1,1.6z M31.8,2.5l0.4,1.9
					L21.8,8.2l-0.4-1.9L31.8,2.5z M24.8,23.9L24.8,23.9c0-0.1,0.1-0.1,0.1-0.2v-0.3l-0.1-0.8l10.4-3.8l0.4,1.9l-11.2,4.1L24.8,23.9z
					 M22.3,18l0.4,1.9L7.6,25.4l-0.4-1.9L22.3,18z M21.7,14.7l0.4,1.9L7,22.2l-0.4-1.9L21.7,14.7z M21.1,11.4l0.4,1.9L6.3,18.9
					L5.9,17L21.1,11.4z M20.4,8.2l0.4,1.9L5.6,15.6l-0.4-1.9L20.4,8.2z M20.2,6.8L5,12.3l-0.4-1.9l15.2-5.6L20.2,6.8z M22.5,11.5
					l-0.4-1.9l10.4-3.8l0.4,1.9L22.5,11.5z M23.1,14.8l-0.4-1.9L33.1,9l0.4,1.9L23.1,14.8z M34.4,15.6l0.4,1.9l-10.4,3.8L24,19.4
					L34.4,15.6z M23.8,18l-0.4-1.9l10.4-3.8l0.4,1.9L23.8,18z M37.5,24.3L33,1.4c-0.1-0.2-0.2-0.3-0.3-0.4c-0.2-0.1-0.4-0.1-0.6,0
					L21.2,5l-0.9-4.4c-0.1-0.2-0.2-0.3-0.3-0.4c-0.2-0.1-0.4-0.1-0.6,0L3.8,5.8L3.5,4.5C4.4,4,4.9,2.9,4.7,1.9
					C4.5,0.6,3.2-0.2,1.9,0s-2.1,1.5-1.9,2.8c0.2,1,1.1,1.8,2.1,1.9l6.6,33.4c0.1,0.3,0.3,0.6,0.7,0.5h0.1c0.4-0.1,0.6-0.4,0.6-0.8
					l-1.6-7.8L19,26.3l0.9,4.4v0c0,0,0,0.1,0,0.1s0,0,0,0.1 M20,31C20,31,20,31,20,31L20,31c0,0.1,0.1,0.1,0.2,0.1h0
					c0,0,0.1,0,0.2,0h0.1c0,0,0,0,0.1,0l16.4-6c0.3-0.2,0.4-0.5,0.4-0.8"/>
			</g>
		</g>
	</g>
</g>
</svg>
